#!OML:ASF E:\Style4\Style4.ASF
:FULLY-SPECIFIED
:DEGREES
4030
root -0.196259 17.4491 -2.77469 7.98061 5.44364 2.57058
lowerback 18.52 1.85671 -0.402031
upperback 10.4244 2.40411 0.865787
thorax 0.769243 1.17815 0.723319
lowerneck -1.73573 -3.24261 -4.79637
upperneck 5.53375 -4.15925 0.524279
head 2.15886 -2.14895 0.879925
rclavicle 3.06128e-014 5.56597e-015
rhumerus -5.32257 22.7691 -82.9274
rradius 54.5756
rwrist -28.195
rhand -30.4822 12.1504
rfingers 7.12502
rthumb -3.78315 -17.7958
lclavicle 3.06128e-014 5.56597e-015
lhumerus -3.24057 -37.1827 80.2065
lradius 74.9225
lwrist 5.66665
lhand -4.75377 31.6842
lfingers 7.12502
lthumb 21.03 60.5639
rfemur -32.3447 -4.11555 18.5966
rtibia 44.2027
rfoot -18.8313 -15.6809
rtoes -6.27318
lfemur -31.6965 -1.62559 -21.2114
ltibia 40.3062
lfoot -16.2949 6.34804
ltoes -11.102
4031
root -0.186736 17.4854 -2.76367 8.20389 5.8857 2.58733
lowerback 18.3127 1.66866 -0.174739
upperback 10.3311 2.19747 0.828413
thorax 0.786502 1.08685 0.595844
lowerneck -1.57363 -3.29041 -4.8303
upperneck 5.6083 -4.23917 0.71222
head 2.16304 -2.18578 0.945489
rclavicle 2.38542e-015 -7.95139e-015
rhumerus -6.20905 24.3298 -82.3658
rradius 56.5363
rwrist -27.8046
rhand -26.6172 12.4186
rfingers 7.12502
rthumb -0.0503572 -17.5611
lclavicle 2.38542e-015 -7.95139e-015
lhumerus -4.17804 -37.3139 80.0748
lradius 76.8479
lwrist 7.80905
lhand -4.27566 30.9259
lfingers 7.12502
lthumb 21.4892 59.7539
rfemur -32.0921 -4.49972 18.6045
rtibia 43.5196
rfoot -18.622 -15.7509
rtoes -6.25497
lfemur -31.5259 -2.17669 -21.1706
ltibia 39.5648
lfoot -16.0043 6.47385
ltoes -10.8194
4032
root -0.175424 17.5124 -2.75308 8.42382 6.299 2.69121
lowerback 18.1909 1.49608 -0.046083
upperback 10.1972 1.9951 0.78402
thorax 0.712109 0.993571 0.511894
lowerneck -1.4614 -3.32192 -4.80537
upperneck 5.7372 -4.28866 0.755948
head 2.18731 -2.21022 0.954747
rclavicle -3.26007e-014 1.66979e-014
rhumerus -7.09073 25.8165 -81.7659
rradius 58.5545
rwrist -27.4675
rhand -22.9916 12.7652
rfingers 7.12502
rthumb 3.45124 -17.1866
lclavicle -3.26007e-014 1.66979e-014
lhumerus -5.12128 -37.6668 79.8962
lradius 78.6782
lwrist 9.88826
lhand -4.00806 30.3672
lfingers 7.12502
lthumb 21.7462 59.1656
rfemur -31.8932 -4.88621 18.5015
rtibia 42.9251
rfoot -18.4548 -15.7408
rtoes -6.17912
lfemur -31.3819 -2.6198 -21.2488
ltibia 38.8855
lfoot -15.7155 6.50584
ltoes -10.4094
4033
root -0.172192 17.5391 -2.74103 8.60732 6.33248 2.70282
lowerback 18.0142 1.51859 -0.00296706
upperback 10.1262 2.03005 0.743527
thorax 0.728385 1.01389 0.442296
lowerneck -1.31783 -3.39357 -4.82301
upperneck 5.74035 -4.39633 0.863804
head 2.16962 -2.26162 0.991468
rclavicle -2.54444e-014 1.43125e-014
rhumerus -7.87133 27.0413 -81.1041
rradius 60.6793
rwrist -27.3405
rhand -19.1999 13.3471
rfingers 7.12502
rthumb 7.1122 -16.5134
lclavicle -2.54444e-014 1.43125e-014
lhumerus -5.78366 -38.3372 79.4855
lradius 80.4024
lwrist 12.0369
lhand -3.30982 29.8954
lfingers 7.12502
lthumb 22.4166 58.6146
rfemur -31.7546 -4.89592 18.4857
rtibia 42.4175
rfoot -18.2419 -15.7626
rtoes -6.34838
lfemur -31.225 -2.63928 -21.2654
ltibia 38.3301
lfoot -15.5222 6.56172
ltoes -10.611
4034
root -0.173697 17.5622 -2.72942 8.7766 6.26648 2.64356
lowerback 17.7764 1.6066 0.0491366
upperback 10.116 2.15048 0.705309
thorax 0.841521 1.077 0.358973
lowerneck -1.18963 -3.49449 -4.85042
upperneck 5.66114 -4.54735 1.06087
head 2.13234 -2.33201 1.05763
rclavicle 1.27222e-014 -1.03368e-014
rhumerus -8.55936 28.0388 -80.4391
rradius 62.9182
rwrist -27.4543
rhand -15.4095 13.908
rfingers 7.12502
rthumb 10.7698 -15.7959
lclavicle 1.27222e-014 -1.03368e-014
lhumerus -6.19224 -39.1582 78.8985
lradius 82.0353
lwrist 14.3947
lhand -2.61684 29.3307
lfingers 7.12502
lthumb 23.0816 57.9683
rfemur -31.6721 -4.80719 18.5598
rtibia 42.0045
rfoot -18.0391 -15.7988
rtoes -6.6868
lfemur -31.116 -2.55575 -21.1949
ltibia 37.8847
lfoot -15.3873 6.58665
ltoes -10.8265
4035
root -0.17426 17.5774 -2.72349 8.95783 6.22694 2.63423
lowerback 17.5923 1.68149 0.0710045
upperback 10.0806 2.24964 0.654751
thorax 0.900009 1.12868 0.281879
lowerneck -1.11864 -3.58357 -4.87702
upperneck 5.65834 -4.67746 1.2278
head 2.1292 -2.39348 1.11338
rclavicle 4.77083e-015 -1.35174e-014
rhumerus -9.27015 28.7759 -79.8509
rradius 65.2357
rwrist -27.7287
rhand -11.1576 13.8404
rfingers 7.12502
rthumb 14.8687 -15.6061
lclavicle 4.77083e-015 -1.35174e-014
lhumerus -6.57454 -39.9889 78.3046
lradius 83.6008
lwrist 16.8307
lhand -1.94027 28.6927
lfingers 7.12502
lthumb 23.7307 57.2475
rfemur -31.6712 -4.7629 18.5821
rtibia 41.6787
rfoot -17.872 -15.8019
rtoes -6.94208
lfemur -31.1086 -2.52474 -21.1789
ltibia 37.5421
lfoot -15.2395 6.61386
ltoes -11.2116
4036
root -0.173623 17.5896 -2.72028 9.15653 6.21824 2.66605
lowerback 17.3911 1.75623 0.0530159
upperback 10.0591 2.34365 0.632757
thorax 0.980017 1.17546 0.259378
lowerneck -1.08219 -3.68547 -4.88058
upperneck 5.64346 -4.81622 1.25712
head 2.12357 -2.46167 1.12039
rclavicle 4.25399e-014 9.54166e-015
rhumerus -9.87944 29.3569 -79.2067
rradius 67.4973
rwrist -28.2508
rhand -6.55506 13.8919
rfingers 7.12502
rthumb 19.2987 -15.1706
lclavicle 4.25399e-014 9.54166e-015
lhumerus -6.82622 -40.8349 77.7022
lradius 85.1311
lwrist 19.4237
lhand -1.24925 28.1856
lfingers 7.12502
lthumb 24.3933 56.6529
rfemur -31.7599 -4.68347 18.5403
rtibia 41.4536
rfoot -17.8003 -15.8246
rtoes -6.61619
lfemur -31.1788 -2.54464 -21.199
ltibia 37.3002
lfoot -15.0538 6.63651
ltoes -11.103
4037
root -0.172245 17.5972 -2.71814 9.26734 6.24751 2.69611
lowerback 17.2673 1.81597 0.0438957
upperback 10.0701 2.42017 0.633918
thorax 1.0548 1.21342 0.257714
lowerneck -1.02401 -3.77225 -4.92819
upperneck 5.57137 -4.93677 1.32177
head 2.09738 -2.52053 1.14755
rclavicle 2.38542e-014 7.95139e-016
rhumerus -10.3793 29.8669 -78.4844
rradius 69.6789
rwrist -29.1616
rhand -1.8022 13.8258
rfingers 7.12502
rthumb 23.8631 -14.7118
lclavicle 2.38542e-014 7.95139e-016
lhumerus -6.96847 -41.7142 77.0276
lradius 86.6556
lwrist 21.9264
lhand -0.654312 27.7815
lfingers 7.12502
lthumb 24.9635 56.1708
rfemur -31.812 -4.60343 18.4908
rtibia 41.3315
rfoot -17.6893 -15.9235
rtoes -6.64483
lfemur -31.211 -2.5576 -21.2319
ltibia 37.1631
lfoot -14.9483 6.62617
ltoes -10.8445
4038
root -0.172039 17.5993 -2.71581 9.33036 6.28868 2.66927
lowerback 17.2486 1.87838 0.0596652
upperback 10.044 2.50399 0.664967
thorax 1.03525 1.25501 0.26809
lowerneck -0.997559 -3.85288 -4.98021
upperneck 5.55262 -5.04679 1.37853
head 2.09406 -2.57485 1.1724
rclavicle 4.96962e-014 -2.3059e-014
rhumerus -10.9648 30.2308 -77.8388
rradius 71.7996
rwrist -30.4046
rhand 2.7403 13.258
rfingers 7.12502
rthumb 28.2124 -14.6385
lclavicle 4.96962e-014 -2.3059e-014
lhumerus -7.31079 -42.5371 76.5932
lradius 88.0869
lwrist 24.2056
lhand -0.129775 27.2621
lfingers 7.12502
lthumb 25.4661 55.5807
rfemur -31.8594 -4.52007 18.5058
rtibia 41.3201
rfoot -17.7322 -15.9812
rtoes -6.42752
lfemur -31.2729 -2.52033 -21.2132
ltibia 37.134
lfoot -14.9271 6.5891
ltoes -10.8689
4039
root -0.170653 17.5957 -2.71528 9.40406 6.39579 2.61853
lowerback 17.2851 1.89176 0.106721
upperback 9.97379 2.52915 0.722094
thorax 0.9401 1.2678 0.294586
lowerneck -0.967763 -3.91238 -5.09701
upperneck 5.51004 -5.12638 1.42133
head 2.08315 -2.61551 1.20499
rclavicle 1.11319e-014 2.38542e-014
rhumerus -11.6086 30.6672 -77.2173
rradius 73.8989
rwrist -31.8792
rhand 6.85738 12.4619
rfingers 7.12502
rthumb 32.1399 -14.7159
lclavicle 1.11319e-014 2.38542e-014
lhumerus -7.79027 -43.2083 76.3279
lradius 89.3487
lwrist 26.1881
lhand 0.615993 26.6744
lfingers 7.12502
lthumb 26.1803 54.8891
rfemur -31.9732 -4.51536 18.5607
rtibia 41.4189
rfoot -17.8136 -16.0268
rtoes -6.27107
lfemur -31.4287 -2.58725 -21.1489
ltibia 37.2306
lfoot -15.0315 6.54193
ltoes -10.5627
4040
root -0.170018 17.5854 -2.71591 9.4836 6.49978 2.65448
lowerback 17.2987 1.91591 0.110859
upperback 9.9297 2.56198 0.735731
thorax 0.885029 1.28409 0.299734
lowerneck -0.951341 -3.98128 -5.17976
upperneck 5.46283 -5.21897 1.46602
head 2.07261 -2.66182 1.23179
rclavicle 6.75868e-015 1.98785e-014
rhumerus -12.2618 30.9365 -76.6431
rradius 75.9872
rwrist -33.3987
rhand 10.8513 11.5138
rfingers 7.12502
rthumb 35.9333 -14.8191
lclavicle 6.75868e-015 1.98785e-014
lhumerus -8.07627 -43.9421 75.84
lradius 90.5198
lwrist 28.1984
lhand 1.34185 26.0727
lfingers 7.12502
lthumb 26.875 54.1824
rfemur -32.1801 -4.56088 18.5313
rtibia 41.6486
rfoot -17.8869 -16.0729
rtoes -6.44921
lfemur -31.6541 -2.66478 -21.1825
ltibia 37.4473
lfoot -15.0942 6.55023
ltoes -11.0988
4041
root -0.17117 17.5687 -2.71815 9.52902 6.58394 2.67131
lowerback 17.335 1.94486 0.10151
upperback 9.91287 2.59917 0.760426
thorax 0.846496 1.30171 0.323213
lowerneck -0.886753 -4.02285 -5.23495
upperneck 5.3271 -5.27776 1.488
head 2.02153 -2.69057 1.24894
rclavicle -1.78906e-014 -1.11319e-014
rhumerus -12.8542 31.0245 -76.1042
rradius 77.9457
rwrist -34.8067
rhand 14.652 10.5826
rfingers 7.12502
rthumb 39.524 -14.7853
lclavicle -1.78906e-014 -1.11319e-014
lhumerus -8.4472 -44.6604 75.2971
lradius 91.8089
lwrist 30.3182
lhand 1.74949 25.5062
lfingers 7.12502
lthumb 27.265 53.5553
rfemur -32.4115 -4.5752 18.5259
rtibia 41.9806
rfoot -18.0122 -16.1532
rtoes -6.56384
lfemur -31.913 -2.68333 -21.1932
ltibia 37.7727
lfoot -15.1171 6.44736
ltoes -11.2142
4042
root -0.172116 17.548 -2.72237 9.51066 6.67238 2.68408
lowerback 17.4637 1.94182 0.0983662
upperback 9.90618 2.59579 0.781623
thorax 0.771973 1.29947 0.343127
lowerneck -0.81931 -4.02143 -5.34596
upperneck 5.14533 -5.27815 1.50563
head 1.9547 -2.69103 1.27626
rclavicle -2.50469e-014 1.82882e-014
rhumerus -13.431 31.1635 -75.5839
rradius 79.771
rwrist -36.2193
rhand 17.9736 9.68274
rfingers 7.12502
rthumb 42.6429 -14.6882
lclavicle -2.50469e-014 1.82882e-014
lhumerus -8.86675 -45.2868 74.7924
lradius 93.0698
lwrist 32.4674
lhand 2.14107 25.2184
lfingers 7.12502
lthumb 27.6395 53.208
rfemur -32.6423 -4.6158 18.5232
rtibia 42.4265
rfoot -18.1749 -16.2204
rtoes -6.48096
lfemur -32.1456 -2.68247 -21.2072
ltibia 38.1792
lfoot -15.272 6.33747
ltoes -11.3661
